<?xml version="1.0" encoding="UTF-8"?><svg id="Layer_2" xmlns="http://www.w3.org/2000/svg" viewBox="0 0 72.55 73.66"><g id="logo-variations"><g id="scm-logo-wink-mini"><path d="M71.05,2.61l-22.83,13.31c-3.72-1.14-7.75-1.75-11.94-1.75s-8.22,.62-11.94,1.75L1.5,2.61V43.17c0,16.01,15.57,29,34.78,29s34.78-12.98,34.78-29h0s0,0,0,0V2.61Z" fill="#fff" stroke="#231f20" stroke-miterlimit="10" stroke-width="3"/><path d="M46.65,34.89h0c5.32,0,9.64,4.32,9.64,9.64v.31h0c-5.32,0-9.64-4.32-9.64-9.64v-.31h0Z" transform="translate(-13.12 48.07) rotate(-45)" fill="#fff" stroke="#231f20" stroke-miterlimit="10" stroke-width="3"/><line x1="14.15" y1="39.87" x2="32.61" y2="39.87" fill="none" stroke="#231f20" stroke-miterlimit="10" stroke-width="3"/><line x1="51.41" y1="36.88" x2="51.41" y2="42.74" fill="none" stroke="#231f20" stroke-miterlimit="10" stroke-width="3"/></g></g></svg>